# xmcd
#
# Track frame offsets: 
#        150
#        15827
#        28394
#        52919
#        64398
#        77047
#        90216
#        111429
#        128270
#        142867
#        155808
#        169328
#        179358
#        192592
#        207118
#        220578
#        231629
#        247335
#        269111
#        280211
#
# Disc length: 3965 seconds
#
# Revision: 0
# Processed by: cddbd v1.5.2PL0 Copyright (c) Steve Scherf et al.
# Submitted via: ExactAudioCopy v1.0b1
#
DISCID=280f7b14
DTITLE=Various Artist - Soul Brother Soul Sister CD3 Boys and Girls Come Togeth
DTITLE=er
DYEAR=2009
DGENRE=Soul
TTITLE0=Ike and Tina Turner - Come Together
TTITLE1=Jody Gayles - You Gotta Push
TTITLE2=Earth, Wind and Fire - Getaway (Live)
TTITLE3=Donny Hathaway and June Conquest - I Thank You
TTITLE4=Gene Chandler - Man's Temptation
TTITLE5=Doris Duke - To The Other Woman
TTITLE6=Curtis Mayfield and Linda Clifford - The Right Combination
TTITLE7=Ann Sexton - Keep On Holding On
TTITLE8=Barbara Mason and Bunny Sigler - My Girl
TTITLE9=Lee Dorsey and Betty Harris - Love Lots Of Lovin'
TTITLE10=The Meters - Cissy Strut
TTITLE11=Betty Everett - The Shoop Shoop Song (It's In His Kiss)
TTITLE12=Ike and Tina Turner - Nutbush City Limits
TTITLE13=Sly and The Family Stone - Back On The Right Track
TTITLE14=Ad Libs - The Boy From New York City
TTITLE15=Brook Benton and Dinah Washington - A Rocking Good Way (To Mess
TTITLE15=Around And Fall In Love)
TTITLE16=Al Wilson - Show And Tell
TTITLE17=Barbara Mason - Oh How It Hurts
TTITLE18=Eddie Bo and Inez Cheatham - A Lover And A Friend
TTITLE19=Bobby Womack &Patti Labelle - It Takes A Lot Of Strength To S
TTITLE19=ay Goodbye 
EXTD=
EXTT0=
EXTT1=
EXTT2=
EXTT3=
EXTT4=
EXTT5=
EXTT6=
EXTT7=
EXTT8=
EXTT9=
EXTT10=
EXTT11=
EXTT12=
EXTT13=
EXTT14=
EXTT15=
EXTT16=
EXTT17=
EXTT18=
EXTT19=
PLAYORDER=
